<svg xmlns="http://www.w3.org/2000/svg" xmlns:xlink="http://www.w3.org/1999/xlink" viewBox="0 0 330.15 306.41"><defs><style>.a{fill:none;}.b{clip-path:url(#a);}.c{fill:#516f78;}.d{fill:#3b6070;}.e{fill:#2f4c61;}.f,.k{fill:#ba7e6c;}.g{fill:#e1b09d;}.h{fill:#f2c9b6;}.i{fill:#868893;}.j{fill:#fff;}.k,.l,.o{opacity:0.5;}.l{fill:#8f755d;}.m{fill:url(#b);}.n{fill:#cfd0d2;}.o{fill:#9e8259;}.p{fill:url(#c);}</style><clipPath id="a" transform="translate(46.45 -8.07)"><circle class="a" cx="122.62" cy="123.24" r="119.05"/></clipPath><linearGradient id="b" x1="118.62" y1="119.82" x2="118.62" y2="8.07" gradientUnits="userSpaceOnUse"><stop offset="0" stop-color="#6b5b4c"/><stop offset="1" stop-color="#8f755d"/></linearGradient><linearGradient id="c" x1="94.11" y1="23.29" x2="147.95" y2="23.29" gradientTransform="translate(1.68 -6.11) rotate(2.82)" gradientUnits="userSpaceOnUse"><stop offset="0" stop-color="#9e8259"/><stop offset="1" stop-color="#8f755d"/></linearGradient></defs><title>me-animated3</title><g class="b"><path class="c" d="M118.62,202.36s30.88-8.93,33.93-9.44S229,214,241,218.85c16.41,6.62,24.88,19.18,30.49,37S283.69,313,283.69,313H-46.45s6.63-39.24,12.23-57.08,14.07-30.4,30.49-37c12-4.82,85.37-26.44,88.42-25.93S118.62,202.36,118.62,202.36Z" transform="translate(46.45 -8.07)"/><path class="d" d="M118.62,202.36s-30.88-8.93-33.93-9.44S8.22,214-3.74,218.85c-16.42,6.62-24.88,19.18-30.49,37S-46.45,313-46.45,313H118.62Z" transform="translate(46.45 -8.07)"/><path class="e" d="M173.64,177c-.53-11.37-24.95-20.52-55-20.52s-54.49,9.15-55,20.52l-.19,23.32H173.82Z" transform="translate(46.45 -8.07)"/><path class="f" d="M62.85,102.56s-4.32-5.63-6.82-6a5.6,5.6,0,0,0-6.15,4.61c-.5,3.24,1,9.73,2.5,12.29a43.7,43.7,0,0,1,3.49,9.21,63.77,63.77,0,0,0,3.66,8.7c.83,1.71,0,6.66,2.33,10.92,1.6,2.94,6.32,2.56,6.65-2.56s5.16-13.31,5.16-13.31S73,112.8,71.49,110.07,62.85,102.56,62.85,102.56Z" transform="translate(46.45 -8.07)"/><path class="f" d="M174.4,102.56s4.32-5.63,6.82-6a5.6,5.6,0,0,1,6.15,4.61c.5,3.24-1,9.73-2.5,12.29a43.86,43.86,0,0,0-3.49,9.21,63.48,63.48,0,0,1-3.66,8.7c-.83,1.71,0,6.66-2.33,10.92-1.6,2.94-6.32,2.56-6.65-2.56s-5.16-13.31-5.16-13.31.66-13.65,2.16-16.38S174.4,102.56,174.4,102.56Z" transform="translate(46.45 -8.07)"/><path class="f" d="M118.62,148.85h41.33s-.18,24.66,0,34.63a19.5,19.5,0,0,0,10,16.86A47.94,47.94,0,0,1,151,230a53.11,53.11,0,0,1-32.36,10,53.11,53.11,0,0,1-32.36-10,47.94,47.94,0,0,1-19-29.69,19.5,19.5,0,0,0,10-16.86c.18-10,0-34.63,0-34.63Z" transform="translate(46.45 -8.07)"/><path class="g" d="M118.62,16.35c8.62,0,25.1,1,38.35,15.29s16.89,37.78,17.23,48.66,0,34.19-1.48,45.3-8.49,32-11.82,38.16c-5,9.2-21.73,24.57-28.56,29-5.89,3.86-13.72,3.62-13.72,3.62s-7.84.25-13.72-3.62c-6.83-4.48-23.59-19.85-28.56-29C73,157.59,66,136.67,64.52,125.59S62.7,91.16,63,80.29s4-34.39,17.23-48.66S110.93,16.35,118.62,16.35Z" transform="translate(46.45 -8.07)"/><path class="g" d="M77.29,148.85s.18,24.66,0,34.63a19.5,19.5,0,0,1-10,16.86,47.94,47.94,0,0,0,19,29.69,53.11,53.11,0,0,0,32.36,10V148.85Z" transform="translate(46.45 -8.07)"/><path class="h" d="M124.66,131.58c-.53-2.42-4.37-16.52-4.86-18.63-.32-1.4-.86-5.29-1.18-7.76V16.35c-7.69,0-25.1,1-38.35,15.29S63.38,69.42,63,80.29s0,34.19,1.48,45.3,8.49,32,11.82,38.16c5,9.2,21.73,24.57,28.56,29,5.89,3.86,13.72,3.62,13.72,3.62v-55.5a6.68,6.68,0,0,0,3.78-.94C125,138.38,125.4,135,124.66,131.58Z" transform="translate(46.45 -8.07)"/><circle class="i" cx="141.59" cy="97.36" r="5.91"/><circle class="i" cx="188.56" cy="97.36" r="5.91"/><path class="j" d="M118.62,156.08a37.83,37.83,0,0,0-7.15-.88c-3.07,0-12,.41-12,.41s5.3,5.43,9.9,7.43a25.82,25.82,0,0,0,9.21,2,25.82,25.82,0,0,0,9.21-2c4.6-2,9.9-7.43,9.9-7.43s-9.25-.41-12.31-.41A32.16,32.16,0,0,0,118.62,156.08Z" transform="translate(46.45 -8.07)"/><path class="k" d="M143.4,139.85s6.26,3.65,6.79,8.15c.51,4.25-3.23,12.74-3.23,12.74s2-7.9,1.53-12.74C148.15,144.43,143.4,139.85,143.4,139.85Z" transform="translate(46.45 -8.07)"/><path class="k" d="M93.84,139.85S87.59,143.5,87,148c-.51,4.25,3.23,12.74,3.23,12.74s-2-7.9-1.53-12.74C89.09,144.43,93.84,139.85,93.84,139.85Z" transform="translate(46.45 -8.07)"/><path class="l" d="M75,100.7c-.13,1,2-.75,5.52-2.09A22.39,22.39,0,0,1,86,97.11l-1.07,1.17a28.59,28.59,0,0,1,8.47-.62c4.09.46,9.67,2.38,11.51,2s4.21-2.86,4-3.68-17.43-4.35-23.25-3.23C82.73,93.3,75.17,99.27,75,100.7Z" transform="translate(46.45 -8.07)"/><path class="l" d="M106.1,99.91a12.73,12.73,0,0,0,2.63-1.56A10.29,10.29,0,0,0,110.83,96a7.41,7.41,0,0,1-2.24,3.68C107,100.78,106.1,99.91,106.1,99.91Z" transform="translate(46.45 -8.07)"/><path class="l" d="M162.26,100.7c.13,1-2-.75-5.52-2.09a22.39,22.39,0,0,0-5.52-1.5l1.07,1.17a28.6,28.6,0,0,0-8.47-.62c-4.09.46-9.67,2.38-11.51,2s-4.21-2.86-4-3.68,17.43-4.35,23.25-3.23C154.51,93.3,162.07,99.27,162.26,100.7Z" transform="translate(46.45 -8.07)"/><path class="l" d="M131.14,99.91a12.74,12.74,0,0,1-2.63-1.56A10.35,10.35,0,0,1,126.4,96a7.43,7.43,0,0,0,2.24,3.68C130.21,100.78,131.14,99.91,131.14,99.91Z" transform="translate(46.45 -8.07)"/><ellipse class="k" cx="165.07" cy="170.73" rx="3.31" ry="0.89"/><path class="k" d="M109.85,112.93a19.9,19.9,0,0,1-4.21,4.91,18,18,0,0,1-4.35,2.39s4.63-.42,6.32-1.82S109.85,112.93,109.85,112.93Z" transform="translate(46.45 -8.07)"/><path class="k" d="M127.39,112.93a19.9,19.9,0,0,0,4.21,4.91,18,18,0,0,0,4.35,2.39s-4.63-.42-6.31-1.82S127.39,112.93,127.39,112.93Z" transform="translate(46.45 -8.07)"/><path class="m" d="M118.62,8.07a56.38,56.38,0,0,1,7.15.42A51.77,51.77,0,0,1,134,10.16l-1.82.42a71,71,0,0,1,7.57,2,84.2,84.2,0,0,1,9.36,4.14l-1.82-.14a63.11,63.11,0,0,1,11.32,6.73A49.85,49.85,0,0,1,164.93,29l-1.82-.42a49.52,49.52,0,0,1,11,12.59,55.32,55.32,0,0,1,5.52,12.32l-1.4-.84a34.85,34.85,0,0,1,3.45,10.14,54.57,54.57,0,0,1,.67,13.35l-.84-2.66a70.7,70.7,0,0,1-1,13.85c-1.46,7.74-1,9.93-1,9.93S178,99.22,178,103.61c.09,7.88-2.47,11.18-2.47,11.18a22,22,0,0,0,.55-3.85,13.73,13.73,0,0,0-.16-2.91,20.89,20.89,0,0,1-1.18,7.07,23.68,23.68,0,0,1-2.71,4.71,40.15,40.15,0,0,0,.67-4c.86-7.41.35-16.48-1.34-21.2a80.32,80.32,0,0,1-3.12-12.05l1.79.9a33.57,33.57,0,0,0,.08-8.32,58.54,58.54,0,0,0-1.7-8.49l1.45,1A46.09,46.09,0,0,0,168.35,60a28.18,28.18,0,0,0-5-9.6l2,.68a29.07,29.07,0,0,0-3.06-7.48,26.52,26.52,0,0,0-5-6.15l1.94.12A20.33,20.33,0,0,0,155,32.65a30.06,30.06,0,0,0-7.52-4.79l1.56-.22s-4.82-2.73-7.72-2.29-3.64,2.36-5.87,5a11.91,11.91,0,0,1-6,3.46A8.57,8.57,0,0,0,131.75,32a5,5,0,0,0,1-2.33,10.14,10.14,0,0,1-4.34,3.86c-4,2-9.81,1.94-9.81,1.94s-5.82.09-9.81-1.94a10.14,10.14,0,0,1-4.34-3.86,5,5,0,0,0,1,2.33,8.57,8.57,0,0,0,2.29,1.87,11.91,11.91,0,0,1-6-3.46c-2.23-2.68-3-4.59-5.87-5s-7.72,2.29-7.72,2.29l1.56.22a30,30,0,0,0-7.51,4.79A20.37,20.37,0,0,0,78,37.58l1.94-.12a26.55,26.55,0,0,0-5,6.15,29.09,29.09,0,0,0-3.06,7.48l2-.68a28.18,28.18,0,0,0-5,9.6,46.18,46.18,0,0,0-1.53,7.64l1.44-1a58.83,58.83,0,0,0-1.7,8.49,33.59,33.59,0,0,0,.08,8.32l1.79-.9A80.15,80.15,0,0,1,65.85,94.6c-1.69,4.72-2.2,13.8-1.34,21.2a40.34,40.34,0,0,0,.67,4,23.64,23.64,0,0,1-2.7-4.71A20.9,20.9,0,0,1,61.3,108a10.29,10.29,0,0,0-.15,3,26.59,26.59,0,0,0,1,4.27s-3.49-4.05-2.94-12c.3-4.39-1.56-6-1.56-6s.48-2.19-1-9.93a70.71,70.71,0,0,1-1-13.85l-.84,2.66a54.61,54.61,0,0,1,.67-13.35A34.79,34.79,0,0,1,59,52.69l-1.4.84a55.34,55.34,0,0,1,5.52-12.32,49.53,49.53,0,0,1,11-12.59L72.31,29a50,50,0,0,1,6.29-5.73,63.14,63.14,0,0,1,11.32-6.73l-1.82.14a84.22,84.22,0,0,1,9.36-4.14,71.08,71.08,0,0,1,7.57-2l-1.82-.42a51.78,51.78,0,0,1,8.25-1.68A56.39,56.39,0,0,1,118.62,8.07Z" transform="translate(46.45 -8.07)"/><path class="d" d="M161.41,164.27S169,168,170.9,178.92c2.21,12.83-4.54,26.61-20.25,38.55S124.9,230,123,230.56c-3,.89-4.37,2.89-4.37,4.84V241s26.66-.08,51.19-9.11c22.15-8.16,35.78-21.53,36.59-24.63,1-3.91-9.17-12.23-13.42-13.93-5.43-2.17-8.83-.34-8.83-.34s3-6.82-3.57-15.12C173.62,169.07,161.41,164.27,161.41,164.27Z" transform="translate(46.45 -8.07)"/><path class="c" d="M75.82,164.27s-7.61,3.78-9.48,14.65c-2.21,12.83,4.54,26.61,20.25,38.55s25.75,12.52,27.66,13.09c3,.89,4.37,2.89,4.37,4.84V241S92,241,67.43,231.92c-22.15-8.16-35.78-21.53-36.59-24.63-1-3.91,9.17-12.23,13.42-13.93,5.43-2.17,8.83-.34,8.83-.34s-3-6.82,3.57-15.12C63.62,169.07,75.82,164.27,75.82,164.27Z" transform="translate(46.45 -8.07)"/><path class="j" d="M84,313a3.06,3.06,0,0,1-3.06-3.06c0-.29,0-29.65-1.52-48.17A121.21,121.21,0,0,0,71,227.54a3.06,3.06,0,1,1,5.6-2.45,125.55,125.55,0,0,1,8.91,36.14C87,280,87,309.6,87,309.89A3.06,3.06,0,0,1,84,313Z" transform="translate(46.45 -8.07)"/><path class="j" d="M153.27,313a3.06,3.06,0,0,1-3.06-3.06c0-.3,0-29.9,1.54-48.66a125.53,125.53,0,0,1,8.91-36.14,3.06,3.06,0,1,1,5.6,2.45,121.65,121.65,0,0,0-8.42,34.19c-1.5,18.52-1.52,47.87-1.52,48.17a3.06,3.06,0,0,1-3.06,3.06Z" transform="translate(46.45 -8.07)"/><rect class="n" x="162.27" y="229.46" width="5.61" height="76.95"/><ellipse class="j" cx="165.07" cy="240.81" rx="5.52" ry="10.33"/><path class="o" d="M67.7,68.48a34.9,34.9,0,0,0-5.78,7,58.18,58.18,0,0,0-4.23,8.61s.95-6.46,3.56-10.55A11.28,11.28,0,0,1,67.7,68.48Z" transform="translate(46.45 -8.07)"/><path class="o" d="M59.58,71.7A27.71,27.71,0,0,1,64,63.25c3.29-4.38,5.32-6.89,5.32-6.89A16,16,0,0,0,63,61.69C60.29,65.33,59.58,71.7,59.58,71.7Z" transform="translate(46.45 -8.07)"/><path class="o" d="M169.54,68.48a34.87,34.87,0,0,1,5.78,7,58,58,0,0,1,4.23,8.61s-.95-6.46-3.56-10.55A11.28,11.28,0,0,0,169.54,68.48Z" transform="translate(46.45 -8.07)"/><path class="o" d="M177.66,71.7a27.67,27.67,0,0,0-4.38-8.45C170,58.87,168,56.37,168,56.37a16,16,0,0,1,6.26,5.32C176.95,65.33,177.66,71.7,177.66,71.7Z" transform="translate(46.45 -8.07)"/><path class="p" d="M114.18,12.75a34.14,34.14,0,0,0-8.6-.18,32.47,32.47,0,0,0-8.74,2.56,25.49,25.49,0,0,1,4.67-.27c2.32.11,4.86.49,4.86.49s-8.65.82-11.22,5.67,2.58,9.09,2.58,9.09a4.7,4.7,0,0,1-.81-2.53,4.49,4.49,0,0,1,1.32-3.17s-.62,6.23,8,8.92c9.73,3,19.7.41,19.7.41s-6.29.19-10.42-1a12.62,12.62,0,0,1-5.89-3.28,27.4,27.4,0,0,0,13.62,2.16c7.26-.89,13.92-3.79,16.73-4.15s8.09,1.69,8.09,1.69-6-4-15.86-4.56c-7.43-.44-10.93-.29-10.93-.29s8-2.09,12.67-2.11a44.69,44.69,0,0,1,6.73.33,38.91,38.91,0,0,0-11.57-6,31.83,31.83,0,0,0-11.56-1.56s1.29-.8,5.68-1.15a28.37,28.37,0,0,1,9,1s-8.41-4.24-16.78-3.8C111.16,11.18,114.18,12.75,114.18,12.75Z" transform="translate(46.45 -8.07)"/></g></svg>